<svg xmlns="http://www.w3.org/2000/svg" viewBox="0 0 64 64" role="img" aria-label="NovaSound NS">
  <rect width="64" height="64" rx="14" fill="#0a0a12"/>

  <!-- S middle: behind N -->
  <path d="M34 30C39 32 40 35 38 38C36 40 33 40 30 40" fill="none" stroke="#05d9e8" stroke-width="8" stroke-linecap="round" stroke-linejoin="round"/>

  <!-- N -->
  <path d="M14 50V14L32 50V14" fill="none" stroke="#ff2a6d" stroke-width="8" stroke-linecap="round" stroke-linejoin="round"/>

  <!-- S top: visible in front -->
  <path d="M48 18C45 15 40 14 36 14C31 14 28 17 28 21C28 25 31 27 36 29" fill="none" stroke="#05d9e8" stroke-width="8" stroke-linecap="round" stroke-linejoin="round"/>

  <!-- S bottom: visible in front -->
  <path d="M30 40C26 42 25 46 27 49C29 52 33 54 38 54C42 54 46 53 49 50" fill="none" stroke="#05d9e8" stroke-width="8" stroke-linecap="round" stroke-linejoin="round"/>
</svg>
