<svg xmlns="http://www.w3.org/2000/svg" viewBox="0 0 64 64" role="img" aria-label="NovaSound NS">
  <rect width="64" height="64" rx="14" fill="#0a0a12"/>

  <!-- S middle: behind N -->
  <path d="M31 31C36 33 38 34 38 36C38 38 36 39 32 40" fill="none" stroke="#05d9e8" stroke-width="8" stroke-linecap="round" stroke-linejoin="round"/>

  <!-- N -->
  <path d="M14 50V14L32 50V14" fill="none" stroke="#ff2a6d" stroke-width="8" stroke-linecap="round" stroke-linejoin="round"/>

  <!-- S top: visible in front -->
  <path d="M48 18C45 15 41 14 36 14C31 14 28 17 28 21C28 25 31 28 36 30" fill="none" stroke="#05d9e8" stroke-width="8" stroke-linecap="round" stroke-linejoin="round"/>

  <!-- S bottom: visible in front (curl to left) -->
  <path d="M32 40C37 42 38 46 36 50C34 53 30 54 25 54C21 54 18 53 15 50" fill="none" stroke="#05d9e8" stroke-width="8" stroke-linecap="round" stroke-linejoin="round"/>
</svg>
